<svg width="16" height="16" viewBox="0 0 16 16" fill="none" xmlns="http://www.w3.org/2000/svg">
<path d="M1 1H15V15H1V1Z" fill="#808080"/>
<path d="M7.6392 7.21875H6.39489C6.37216 7.05777 6.32576 6.91477 6.25568 6.78977C6.18561 6.66288 6.09564 6.55492 5.9858 6.46591C5.87595 6.37689 5.74905 6.30871 5.60511 6.26136C5.46307 6.21402 5.30871 6.19034 5.14205 6.19034C4.84091 6.19034 4.5786 6.26515 4.35511 6.41477C4.13163 6.5625 3.95833 6.77841 3.83523 7.0625C3.71212 7.3447 3.65057 7.6875 3.65057 8.09091C3.65057 8.50568 3.71212 8.85417 3.83523 9.13636C3.96023 9.41856 4.13447 9.63163 4.35795 9.77557C4.58144 9.91951 4.83996 9.99148 5.13352 9.99148C5.2983 9.99148 5.45076 9.9697 5.59091 9.92614C5.73295 9.88258 5.8589 9.81913 5.96875 9.7358C6.0786 9.65057 6.16951 9.54735 6.24148 9.42614C6.31534 9.30492 6.36648 9.16667 6.39489 9.01136L7.6392 9.01705C7.60701 9.28409 7.52652 9.54167 7.39773 9.78977C7.27083 10.036 7.09943 10.2566 6.88352 10.4517C6.66951 10.6449 6.41383 10.7983 6.11648 10.9119C5.82102 11.0237 5.48674 11.0795 5.11364 11.0795C4.5947 11.0795 4.13068 10.9621 3.72159 10.7273C3.31439 10.4924 2.99242 10.1525 2.75568 9.70739C2.52083 9.26231 2.40341 8.72348 2.40341 8.09091C2.40341 7.45644 2.52273 6.91667 2.76136 6.47159C3 6.02652 3.32386 5.6875 3.73295 5.45455C4.14205 5.2197 4.60227 5.10227 5.11364 5.10227C5.45076 5.10227 5.76326 5.14962 6.05114 5.24432C6.34091 5.33902 6.59754 5.47727 6.82102 5.65909C7.04451 5.83901 7.22633 6.05966 7.36648 6.32102C7.50852 6.58239 7.59943 6.88163 7.6392 7.21875ZM8.52131 11V5.18182H10.8168C11.2562 5.18182 11.6312 5.26042 11.9418 5.41761C12.2543 5.57292 12.492 5.79356 12.6548 6.07955C12.8196 6.36364 12.902 6.69792 12.902 7.08239C12.902 7.46875 12.8187 7.80114 12.652 8.07955C12.4853 8.35606 12.2438 8.56818 11.9276 8.71591C11.6132 8.86364 11.2325 8.9375 10.7855 8.9375H9.24858V7.94886H10.5866C10.8215 7.94886 11.0166 7.91667 11.1719 7.85227C11.3272 7.78788 11.4427 7.69129 11.5185 7.5625C11.5961 7.43371 11.6349 7.27367 11.6349 7.08239C11.6349 6.8892 11.5961 6.72633 11.5185 6.59375C11.4427 6.46117 11.3262 6.3608 11.169 6.29261C11.0137 6.22254 10.8177 6.1875 10.581 6.1875H9.75142V11H8.52131ZM11.6634 8.35227L13.1094 11H11.7514L10.3366 8.35227H11.6634Z" fill="#141414"/>
</svg>
